#N canvas 346 30 959 755 10;
#X obj 516 277 print ERROR;
#X obj 405 244 convert.ascii2pd CR;
#N canvas 712 205 905 623 in&out 0;
#X obj 114 116 list-extend;
#X obj 191 77 sel 10;
#X msg 191 185 48 13;
#X obj 190 157 prepend set;
#X obj 193 236 gate;
#X msg 126 209 0;
#X msg 160 207 1;
#X obj 116 30 inlet;
#X obj 198 268 outlet;
#X obj 87 80 route 10;
#X connect 0 0 3 0;
#X connect 1 0 0 1;
#X connect 1 0 6 0;
#X connect 1 0 2 0;
#X connect 1 1 5 0;
#X connect 2 0 4 1;
#X connect 3 0 2 0;
#X connect 4 0 8 0;
#X connect 5 0 4 0;
#X connect 6 0 4 0;
#X connect 7 0 1 0;
#X connect 7 0 9 0;
#X connect 9 1 0 0;
#X restore 405 207 pd in&out;
#X obj 380 323 unpack 0 0 0 0 0 0 0;
#X floatatom 380 369 5 0 0 0 - - -;
#X floatatom 400 398 5 0 0 0 - - -;
#X floatatom 420 369 5 0 0 0 - - -;
#X msg 371 123 devices;
#X text 503 166 < change the numer 2 to the comport used by Arduino
;
#X text 434 123 < Click me to see what is connected to serial port
;
#X text 479 208 < click me to see what's in the sub patch;
#X text 538 245 < don't worry about this one!;
#X floatatom 440 399 5 0 0 0 - - -;
#X floatatom 464 368 5 0 0 0 - - -;
#X floatatom 484 399 5 0 0 0 - - -;
#X text 63 42 Arduino 2 Pd - communication protocole by recyclism;
#X text 86 65 NOTE: You need to have the file convert.ascii2pd.pd in
the same folder as this patch;
#X text 516 325 < unpack each sensor vaule (or switches connected)
;
#X text 504 178 < change the numer 9600 to the boudrate used by Arduino
;
#X floatatom 309 488 5 0 0 0 - - -;
#X obj 405 172 comport 3 115200;
#X floatatom 370 509 5 0 0 0 - - -;
#X floatatom 428 531 5 0 0 0 - - -;
#X obj 248 520 outlet;
#X obj 333 546 outlet;
#X obj 403 581 outlet;
#X obj 309 462 moses 80;
#X obj 370 482 moses 160;
#X obj 428 503 moses 240;
#X connect 1 0 3 0;
#X connect 1 2 0 0;
#X connect 2 0 1 0;
#X connect 3 0 4 0;
#X connect 3 1 5 0;
#X connect 3 2 6 0;
#X connect 3 3 12 0;
#X connect 3 4 13 0;
#X connect 3 5 14 0;
#X connect 4 0 26 0;
#X connect 7 0 20 0;
#X connect 20 0 2 0;
#X connect 26 0 19 0;
#X connect 26 0 23 0;
#X connect 26 1 27 0;
#X connect 27 0 21 0;
#X connect 27 0 24 0;
#X connect 27 1 28 0;
#X connect 28 0 22 0;
#X connect 28 0 25 0;
