#N canvas 22 69 457 378 10;
#X declare -lib mrpeach;
#N canvas 95 51 1326 812 MYPATCH 1;
#X msg -375 379 read -resize \$1 chanelL chanelR;
#X obj -375 406 soundfiler;
#X floatatom -346 439 12 0 0 0 - - -;
#X obj -347 463 s sampleSize;
#X obj -371 490 expr 44100 / $f1;
#X obj -369 574 *~;
#X obj -343 722 *~;
#X obj -369 544 phasor~;
#X obj -313 543 r sampleSize;
#X obj -369 605 tabread4~ chanelL;
#X obj -374 723 *~;
#X obj -345 632 tabread4~ chanelR;
#N canvas 0 22 450 278 (subpatch) 0;
#X array chanelL 3.27355e+06 float 2;
#X coords 0 1 3.27355e+06 -1 200 140 1;
#X restore -155 361 graph;
#N canvas 0 22 450 278 (subpatch) 0;
#X array chanelR 3.27355e+06 float 2;
#X coords 0 1 3.27355e+06 -1 200 140 1;
#X restore -162 514 graph;
#X msg -427 503 0;
#X text -428 484 PAUSE;
#X floatatom -321 513 8 0 0 0 - - -;
#X text -440 440 PLAY;
#X obj 176 450 soundfiler;
#X floatatom 205 483 12 0 0 0 - - -;
#X obj 204 507 s sampleSize;
#X obj 180 534 expr 44100 / $f1;
#X obj 261 694 vsl 30 40 0 1 0 0 empty empty Volume 0 -9 0 10 -262144
-1 -1 3900 1;
#X obj 181 604 *~;
#X obj 230 703 *~;
#X obj 180 574 phasor~;
#X obj 234 574 r sampleSize;
#X obj 185 702 *~;
#X msg 130 546 0;
#X text 123 528 PAUSE;
#X floatatom 237 555 8 0 0 0 - - -;
#X text 111 484 PLAY;
#X obj -377 320 loadbang;
#X obj 175 367 loadbang;
#X obj -375 749 dac~ 1 2;
#X obj -310 956 soundfiler;
#X floatatom -281 989 12 0 0 0 - - -;
#X obj -282 1013 s sampleSize;
#X obj -48 1034 vsl 30 40 0 1 0 0 empty empty Volume 0 -9 0 10 -262144
-1 -1 3900 1;
#X obj -304 1124 *~;
#X obj -83 1043 *~;
#X obj -304 1094 phasor~;
#X obj -248 1093 r sampleSize;
#X obj -114 1044 *~;
#N canvas 0 22 450 278 (subpatch) 0;
#X array chanelL3 4.69709e+06 float 2;
#X coords 0 1 4.69709e+06 -1 200 140 1 0 0;
#X restore 36 902 graph;
#N canvas 0 22 450 278 (subpatch) 0;
#X array chanelR3 4.69709e+06 float 2;
#X coords 0 1 4.69709e+06 -1 200 140 1 0 0;
#X restore 40 1068 graph;
#X msg -136 853 0;
#X text -403 1047 PAUSE;
#X floatatom -207 1065 8 0 0 0 - - -;
#X text -375 990 PLAY;
#X obj -312 870 loadbang;
#X obj -115 1070 dac~ 1 2;
#X msg 176 423 read -resize \$1 chanelL2 chanelR2;
#X obj 181 631 tabread4~ chanelL2;
#X obj 208 654 tabread4~ chanelR2;
#N canvas 0 22 450 278 (subpatch) 0;
#X array chanelL2 1.58338e+06 float 2;
#X coords 0 1 1.58338e+06 -1 200 140 1;
#X restore 530 253 graph;
#N canvas 0 22 450 278 (subpatch) 0;
#X array chanelR2 1.58338e+06 float 2;
#X coords 0 1 1.58338e+06 -1 200 140 1;
#X restore 737 256 graph;
#X msg -310 929 read -resize \$1 chanelL3 chanelR3;
#X obj -119 930 tabread4~ chanelL3;
#X obj -95 957 tabread4~ chanelR3;
#X text -421 281 NEED TO UPDATE PLAY MESSAGE IF YOU CHANGE THE FILE!!!!!
;
#X obj -298 684 vsl 30 40 0 1 0 0 empty empty Volume 0 -9 0 10 -262144
-1 -1 3900 1;
#X obj 194 738 dac~ 1 2;
#X obj -11 258 inlet;
#X msg 175 393 open earth.wav;
#X msg 113 502 0.027851;
#X msg -311 899 open drums.wav;
#X text -66 237 master volume;
#X obj -257 35 import mrpeach;
#X obj -39 70 unpackOSC;
#X floatatom -19 159 5 0 0 0 - - -;
#X obj -46 46 udpreceive 54321;
#X obj -25 104 routeOSC /mode;
#X obj -19 131 unpack f;
#X text -57 159 Mode:;
#X obj -100 198 sel 2;
#X obj -30 200 sel 3;
#X obj -407 212 readsf~;
#X obj -406 249 dac~;
#X obj -387 153 sel 1;
#X text -306 309 SPACE;
#X text 316 353 EARTH;
#X text -216 865 DRUMS;
#X obj 78 201 sel 4;
#X floatatom 340 87 5 0 0 0 - - -;
#X floatatom 435 93 5 0 0 0 - - -;
#X obj 364 252 *~ 0;
#X msg 360 169 0;
#X msg 424 169 1;
#X obj 421 249 *~ 0;
#X obj 384 315 output~;
#X obj 341 142 osc~ 126.22;
#X text 527 200 6.5 - 132.72;
#X text 525 176 4 - 130.22;
#X text 524 187 4.5 - 130.72;
#X obj 437 146 osc~ 130.72;
#X obj 268 862 readsf~;
#X msg 324 863 0;
#X obj 271 915 dac~;
#X obj 270 886 *~;
#X obj 295 886 *~;
#X obj 326 890 vsl 15 30 0 6 0 0 empty empty empty 0 -9 0 10 -262144
-1 -1 967 1;
#X msg 267 838 open whisper.wav \, 1;
#X obj 419 887 readsf~;
#X msg 475 888 0;
#X obj 422 940 dac~;
#X obj 421 911 *~;
#X obj 446 911 *~;
#X obj 477 915 vsl 15 30 0 6 0 0 empty empty empty 0 -9 0 10 -262144
-1 -1 967 1;
#X msg 418 863 open whisper.wav \, 1;
#X obj 419 834 delay 1000;
#X obj 570 902 readsf~;
#X msg 626 903 0;
#X obj 573 955 dac~;
#X obj 572 926 *~;
#X obj 597 926 *~;
#X obj 628 930 vsl 15 30 0 6 0 0 empty empty empty 0 -9 0 10 -262144
-1 -1 967 1;
#X msg 569 878 open whisper.wav \, 1;
#X obj 570 849 delay 1000;
#X obj 716 906 readsf~;
#X msg 772 907 0;
#X obj 719 959 dac~;
#X obj 718 930 *~;
#X obj 743 930 *~;
#X obj 774 934 vsl 15 30 0 6 0 0 empty empty empty 0 -9 0 10 -262144
-1 -1 967 1;
#X msg 715 882 open whisper.wav \, 1;
#X obj 716 853 delay 1000;
#X obj 99 248 sel 5;
#X msg -408 183 open test.wav \, 1;
#X msg 385 758 2;
#X obj 158 227 sel 6;
#X text 353 48 turn volume up;
#X obj 383 735 loadbang;
#X obj -306 1040 expr 22050 / $f1;
#X msg -373 1008 0.004696;
#X msg -376 349 open space.wav;
#X msg -438 458 0.013471;
#X obj 429 591 readsf~;
#X obj 436 674 dac~;
#X obj 423 505 bng 15 250 50 0 empty empty empty 17 7 0 10 -262144
-1 -1;
#X obj 427 532 random 36;
#X msg 429 561 open \$1.wav \, 1;
#X obj 554 588 readsf~;
#X obj 561 671 dac~;
#X obj 544 501 bng 15 250 50 0 empty empty empty 17 7 0 10 -262144
-1 -1;
#X obj 552 529 random 36;
#X msg 554 558 open \$1.wav \, 1;
#X obj 679 587 readsf~;
#X obj 686 670 dac~;
#X obj 669 500 bng 15 250 50 0 empty empty empty 17 7 0 10 -262144
-1 -1;
#X obj 677 528 random 36;
#X msg 679 557 open \$1.wav \, 1;
#X obj 803 589 readsf~;
#X obj 810 672 dac~;
#X obj 793 502 bng 15 250 50 0 empty empty empty 17 7 0 10 -262144
-1 -1;
#X obj 801 530 random 36;
#X msg 803 559 open \$1.wav \, 1;
#X obj 925 589 readsf~;
#X obj 932 672 dac~;
#X obj 915 502 bng 15 250 50 0 empty empty empty 17 7 0 10 -262144
-1 -1;
#X obj 923 530 random 36;
#X msg 925 559 open \$1.wav \, 1;
#X obj 472 472 delay 2000;
#X obj 440 455 bng 15 250 50 0 empty empty empty 17 7 0 10 -262144
-1 -1;
#X obj 589 471 delay 1000;
#X obj 702 471 delay 2000;
#X obj 812 473 delay 1000;
#X msg 375 561 0;
#X msg 520 587 0;
#X msg 630 584 0;
#X msg 750 587 0;
#X msg 880 588 0;
#X obj 376 492 bng 15 250 50 0 empty empty empty 17 7 0 10 -262144
-1 -1;
#X text 366 466 all off;
#X text 519 407 on in sequence;
#X floatatom 982 483 5 0 0 0 - - -;
#X obj 915 453 loadbang;
#X msg 998 457 32;
#X obj -161 173 sel 1;
#X obj 212 218 routeOSC /active;
#X text 175 154 mute all if not active;
#X text 262 265 mute all;
#X obj 306 285 bng 15 250 50 0 empty empty empty 17 7 0 10 -262144
-1 -1;
#X msg 145 52 \; pd dsp 1;
#X connect 0 0 1 0;
#X connect 1 0 2 0;
#X connect 1 0 4 0;
#X connect 2 0 3 0;
#X connect 4 0 16 0;
#X connect 5 0 9 0;
#X connect 5 0 11 0;
#X connect 6 0 34 1;
#X connect 7 0 5 0;
#X connect 8 0 5 1;
#X connect 9 0 10 0;
#X connect 10 0 34 0;
#X connect 11 0 6 0;
#X connect 14 0 7 0;
#X connect 18 0 19 0;
#X connect 18 0 21 0;
#X connect 19 0 20 0;
#X connect 21 0 30 0;
#X connect 22 0 27 1;
#X connect 22 0 24 1;
#X connect 23 0 53 0;
#X connect 23 0 54 0;
#X connect 24 0 62 1;
#X connect 25 0 23 0;
#X connect 26 0 23 1;
#X connect 27 0 62 0;
#X connect 28 0 25 0;
#X connect 32 0 135 0;
#X connect 33 0 64 0;
#X connect 35 0 36 0;
#X connect 35 0 133 0;
#X connect 36 0 37 0;
#X connect 38 0 43 1;
#X connect 38 0 40 1;
#X connect 39 0 58 0;
#X connect 39 0 59 0;
#X connect 40 0 51 1;
#X connect 41 0 39 0;
#X connect 42 0 39 1;
#X connect 43 0 51 0;
#X connect 46 0 41 0;
#X connect 50 0 66 0;
#X connect 52 0 18 0;
#X connect 53 0 27 0;
#X connect 54 0 24 0;
#X connect 57 0 35 0;
#X connect 58 0 43 0;
#X connect 59 0 40 0;
#X connect 61 0 6 1;
#X connect 61 0 10 1;
#X connect 63 0 61 0;
#X connect 63 0 22 0;
#X connect 63 0 38 0;
#X connect 64 0 52 0;
#X connect 65 0 25 0;
#X connect 66 0 57 0;
#X connect 69 0 72 0;
#X connect 69 0 179 0;
#X connect 70 0 75 0;
#X connect 70 0 76 0;
#X connect 70 0 83 0;
#X connect 70 0 127 0;
#X connect 70 0 130 0;
#X connect 70 0 178 0;
#X connect 71 0 69 0;
#X connect 72 0 73 0;
#X connect 73 0 70 0;
#X connect 75 0 88 0;
#X connect 76 0 134 0;
#X connect 77 0 78 0;
#X connect 77 0 78 1;
#X connect 79 0 128 0;
#X connect 83 0 136 0;
#X connect 84 0 91 0;
#X connect 85 0 95 0;
#X connect 86 0 90 0;
#X connect 87 0 86 1;
#X connect 87 0 89 1;
#X connect 88 0 86 1;
#X connect 88 0 89 1;
#X connect 89 0 90 1;
#X connect 91 0 86 0;
#X connect 95 0 89 0;
#X connect 96 0 99 0;
#X connect 96 0 100 0;
#X connect 97 0 96 0;
#X connect 97 0 104 0;
#X connect 99 0 98 0;
#X connect 100 0 98 1;
#X connect 101 0 99 1;
#X connect 101 0 100 1;
#X connect 102 0 96 0;
#X connect 102 0 110 0;
#X connect 103 0 106 0;
#X connect 103 0 107 0;
#X connect 104 0 103 0;
#X connect 104 0 112 0;
#X connect 106 0 105 0;
#X connect 107 0 105 1;
#X connect 108 0 106 1;
#X connect 108 0 107 1;
#X connect 109 0 103 0;
#X connect 110 0 109 0;
#X connect 110 0 118 0;
#X connect 111 0 114 0;
#X connect 111 0 115 0;
#X connect 112 0 111 0;
#X connect 112 0 120 0;
#X connect 114 0 113 0;
#X connect 115 0 113 1;
#X connect 116 0 114 1;
#X connect 116 0 115 1;
#X connect 117 0 111 0;
#X connect 118 0 117 0;
#X connect 118 0 126 0;
#X connect 119 0 122 0;
#X connect 119 0 123 0;
#X connect 120 0 119 0;
#X connect 122 0 121 0;
#X connect 123 0 121 1;
#X connect 124 0 122 1;
#X connect 124 0 123 1;
#X connect 125 0 119 0;
#X connect 126 0 125 0;
#X connect 127 0 102 0;
#X connect 127 0 163 0;
#X connect 128 0 77 0;
#X connect 129 0 101 0;
#X connect 129 0 108 0;
#X connect 129 0 116 0;
#X connect 129 0 124 0;
#X connect 132 0 129 0;
#X connect 133 0 48 0;
#X connect 134 0 41 0;
#X connect 135 0 0 0;
#X connect 136 0 7 0;
#X connect 137 0 138 0;
#X connect 137 0 138 1;
#X connect 137 1 139 0;
#X connect 139 0 140 0;
#X connect 140 0 141 0;
#X connect 141 0 137 0;
#X connect 142 0 143 0;
#X connect 142 0 143 1;
#X connect 142 1 144 0;
#X connect 144 0 145 0;
#X connect 145 0 146 0;
#X connect 146 0 142 0;
#X connect 147 0 148 0;
#X connect 147 0 148 1;
#X connect 147 1 149 0;
#X connect 149 0 150 0;
#X connect 150 0 151 0;
#X connect 151 0 147 0;
#X connect 152 0 153 0;
#X connect 152 0 153 1;
#X connect 152 1 154 0;
#X connect 154 0 155 0;
#X connect 155 0 156 0;
#X connect 156 0 152 0;
#X connect 157 0 158 0;
#X connect 157 0 158 1;
#X connect 157 1 159 0;
#X connect 159 0 160 0;
#X connect 160 0 161 0;
#X connect 161 0 157 0;
#X connect 162 0 145 0;
#X connect 162 0 164 0;
#X connect 163 0 140 0;
#X connect 163 0 162 0;
#X connect 164 0 165 0;
#X connect 164 0 150 0;
#X connect 165 0 155 0;
#X connect 165 0 166 0;
#X connect 166 0 160 0;
#X connect 167 0 137 0;
#X connect 168 0 142 0;
#X connect 169 0 147 0;
#X connect 170 0 152 0;
#X connect 171 0 157 0;
#X connect 172 0 167 0;
#X connect 172 0 168 0;
#X connect 172 0 169 0;
#X connect 172 0 147 0;
#X connect 172 0 170 0;
#X connect 172 0 171 0;
#X connect 175 0 160 1;
#X connect 175 0 155 1;
#X connect 175 0 150 1;
#X connect 175 0 145 1;
#X connect 175 0 140 1;
#X connect 176 0 177 0;
#X connect 177 0 175 0;
#X connect 178 0 79 0;
#X connect 179 0 84 0;
#X connect 179 0 172 0;
#X connect 179 0 28 0;
#X connect 179 0 14 0;
#X connect 179 0 46 0;
#X connect 179 0 97 0;
#X connect 182 0 172 0;
#X connect 182 0 87 0;
#X connect 182 0 28 0;
#X connect 182 0 14 0;
#X restore 149 116 pd MYPATCH;
#X obj 158 42 vsl 30 40 0 1 0 0 empty empty Volume 0 -9 0 10 -262144
-1 -1 3900 1;
#X obj 231 45 init 1;
#X connect 1 0 0 0;
#X connect 2 0 1 0;
